<svg width="20" height="20" viewBox="0 0 20 20" fill="none" xmlns="http://www.w3.org/2000/svg">
<path d="M9.99705 16.532C10.242 16.532 10.4784 16.622 10.6614 16.7847C10.8445 16.9475 10.9614 17.1717 10.9901 17.415L10.9971 17.532V18.988C10.9965 19.2428 10.8987 19.4878 10.7237 19.6729C10.5486 19.8581 10.3095 19.9694 10.0552 19.9842C9.80079 19.999 9.55037 19.9162 9.35502 19.7526C9.15968 19.589 9.03414 19.357 9.00405 19.104L8.99705 18.988V17.532C8.99705 17.2668 9.10241 17.0124 9.28994 16.8249C9.47748 16.6374 9.73183 16.532 9.99705 16.532ZM16.0331 14.6L17.0631 15.63C17.2451 15.8187 17.3457 16.0714 17.3432 16.3336C17.3408 16.5958 17.2354 16.8465 17.0499 17.0318C16.8643 17.2171 16.6135 17.3221 16.3513 17.3242C16.0891 17.3263 15.8365 17.2253 15.6481 17.043L14.6191 16.014C14.4369 15.8254 14.3361 15.5728 14.3384 15.3106C14.3407 15.0484 14.4458 14.7976 14.6312 14.6122C14.8166 14.4268 15.0675 14.3216 15.3297 14.3193C15.5918 14.317 15.8444 14.4178 16.0331 14.6ZM5.37305 14.6C5.56052 14.7875 5.66584 15.0418 5.66584 15.307C5.66584 15.5722 5.56052 15.8265 5.37305 16.014L4.34505 17.044C4.15741 17.2316 3.90292 17.3371 3.63755 17.3371C3.37219 17.3371 3.11769 17.2316 2.93005 17.044C2.74241 16.8564 2.637 16.6019 2.637 16.3365C2.637 16.0711 2.74241 15.8166 2.93005 15.629L3.96005 14.599C4.14758 14.4115 4.40189 14.3062 4.66705 14.3062C4.93222 14.3062 5.18652 14.4115 5.37405 14.599L5.37305 14.6ZM10.0101 4.472C11.4754 4.472 12.8807 5.0541 13.9168 6.09024C14.953 7.12637 15.5351 8.53168 15.5351 9.997C15.5351 11.4623 14.953 12.8676 13.9168 13.9038C12.8807 14.9399 11.4754 15.522 10.0101 15.522C8.54473 15.522 7.13943 14.9399 6.10329 13.9038C5.06715 12.8676 4.48505 11.4623 4.48505 9.997C4.48505 8.53168 5.06715 7.12637 6.10329 6.09024C7.13943 5.0541 8.54473 4.472 10.0101 4.472ZM9.25005 7C9.06881 7.00001 8.89371 7.06564 8.75712 7.18477C8.62053 7.30389 8.5317 7.46845 8.50705 7.648L8.50005 7.75V10.754L8.50705 10.856C8.52937 11.0183 8.60421 11.1688 8.72014 11.2846C8.83607 11.4003 8.98672 11.4749 9.14905 11.497L9.25005 11.504H11.2501L11.3521 11.497C11.5142 11.4747 11.6646 11.4 11.7804 11.2843C11.8961 11.1686 11.9708 11.0182 11.9931 10.856L12.0001 10.754L11.9931 10.652C11.9708 10.4898 11.8961 10.3394 11.7804 10.2237C11.6646 10.108 11.5142 10.0333 11.3521 10.011L11.2501 10.004H10.0001V7.75L9.99405 7.648C9.96938 7.46828 9.8804 7.30358 9.74361 7.18444C9.60681 7.06529 9.43146 6.99977 9.25005 7ZM18.9771 9.018C19.2319 9.01828 19.4771 9.11588 19.6624 9.29085C19.8478 9.46582 19.9593 9.70495 19.9742 9.95939C19.9892 10.2138 19.9064 10.4644 19.7428 10.6598C19.5792 10.8553 19.3471 10.9809 19.0941 11.011L18.9771 11.018H17.5221C17.2672 11.0177 17.022 10.9201 16.8367 10.7452C16.6513 10.5702 16.5398 10.331 16.5249 10.0766C16.5099 9.82216 16.5927 9.57162 16.7563 9.37617C16.9199 9.18071 17.152 9.0551 17.4051 9.025L17.5221 9.018H18.9781H18.9771ZM2.48005 8.99C2.73493 8.99028 2.98008 9.08788 3.16542 9.26285C3.35076 9.43782 3.46229 9.67695 3.47722 9.93139C3.49216 10.1858 3.40938 10.4364 3.24579 10.6318C3.0822 10.8273 2.85015 10.9529 2.59705 10.983L2.48005 10.99H1.02305C0.768257 10.9895 0.523275 10.8917 0.33813 10.7166C0.152985 10.5416 0.0416423 10.3025 0.0268373 10.0481C0.0120323 9.79374 0.0948819 9.54332 0.258468 9.34797C0.422055 9.15263 0.654039 9.02709 0.907052 8.997L1.02305 8.99H2.48005ZM4.25005 2.874L4.34505 2.957L5.37405 3.987C5.5534 4.16696 5.65753 4.40843 5.66528 4.66238C5.67304 4.91633 5.58384 5.16371 5.4158 5.35428C5.24777 5.54484 5.0135 5.66431 4.76058 5.6884C4.50765 5.71249 4.25504 5.63941 4.05405 5.484L3.96005 5.4L2.93005 4.371C2.7507 4.19104 2.64658 3.94957 2.63882 3.69562C2.63107 3.44167 2.72027 3.19429 2.8883 3.00372C3.05633 2.81316 3.2906 2.6937 3.54353 2.6696C3.79645 2.64551 4.04906 2.71859 4.25005 2.874ZM17.0631 2.957C17.2352 3.12919 17.3387 3.35829 17.3539 3.60132C17.3692 3.84435 17.2953 4.0846 17.1461 4.277L17.0631 4.371L16.0331 5.401C15.8531 5.58035 15.6116 5.68447 15.3577 5.69223C15.1037 5.69998 14.8563 5.61079 14.6658 5.44275C14.4752 5.27472 14.3557 5.04045 14.3317 4.78753C14.3076 4.5346 14.3806 4.28199 14.5361 4.081L14.6191 3.986L15.6491 2.956C15.8366 2.76853 16.0909 2.66321 16.3561 2.66321C16.6212 2.66321 16.8755 2.76953 17.0631 2.957ZM10.0001 0.0130005C10.245 0.0130328 10.4814 0.102957 10.6644 0.265716C10.8475 0.428475 10.9644 0.652749 10.9931 0.896L11.0001 1.013V2.468C11.0021 2.72443 10.9055 2.97185 10.7303 3.15911C10.5551 3.34637 10.3147 3.45917 10.0587 3.47419C9.80266 3.48921 9.55067 3.40531 9.35477 3.23982C9.15887 3.07433 9.03403 2.83991 9.00605 2.585L9.00005 2.468V1.013C9.00005 0.747784 9.10541 0.49343 9.29294 0.305894C9.48048 0.118357 9.73483 0.0130005 10.0001 0.0130005Z" fill="#DAD8F7"/>
</svg>
