<svg width="33" height="32" viewBox="0 0 33 32" fill="none" xmlns="http://www.w3.org/2000/svg">
<g opacity="0.4">
<path d="M7.27031 25.0844C6.61662 26.4441 7.18924 28.0774 8.54915 28.7295C9.90926 29.3836 11.5415 28.8107 12.1952 27.451C12.8489 26.0913 12.1514 21.2352 12.1514 21.2352C12.1514 21.2352 7.9242 23.7247 7.27031 25.0844Z" fill="white"/>
<path d="M14.5595 25.0844C13.906 26.4441 14.4785 28.0774 15.8386 28.7295C17.1983 29.3836 18.8307 28.8107 19.4844 27.451C20.1381 26.0913 19.4406 21.2352 19.4406 21.2352C19.4406 21.2352 15.2132 23.7247 14.5595 25.0844Z" fill="white"/>
<path d="M17.6699 18.6483C18.3236 17.2886 17.6261 12.4325 17.6261 12.4325C17.6261 12.4325 13.3989 14.922 12.745 16.2817C12.0914 17.6414 12.664 19.2746 14.0239 19.9267C15.384 20.5808 17.0162 20.008 17.6699 18.6483Z" fill="white"/>
<path d="M21.9582 19.9267C23.3181 20.5808 24.9504 20.008 25.604 18.6483C26.2577 17.2886 25.5602 12.4325 25.5602 12.4325C25.5602 12.4325 21.333 14.922 20.6792 16.2817C20.0257 17.6414 20.5981 19.2746 21.9582 19.9267Z" fill="white"/>
<path d="M24.3798 10.5486C25.0337 9.18869 24.3364 4.33317 24.3364 4.33317C24.3364 4.33317 20.1088 6.82148 19.4553 8.18139C18.8016 9.5413 19.3739 11.1737 20.734 11.8274C22.0939 12.4801 23.7261 11.9087 24.3798 10.5486Z" fill="white"/>
<path d="M26.2311 21.2352C26.2311 21.2352 22.0037 23.7247 21.35 25.0844C20.6963 26.4441 21.269 28.0774 22.6287 28.7295C23.9888 29.3836 25.621 28.8107 26.2749 27.451C26.9286 26.0913 26.2311 21.2352 26.2311 21.2352Z" fill="white"/>
</g>
</svg>
